<svg id="Layer_1" data-name="Layer 1" xmlns="http://www.w3.org/2000/svg" viewBox="0 0 1366 768"><defs><style>.cls-1{fill:#fdfdfd;}.cls-2{fill:#26426b;}.cls-3{fill:#fbfbfc;}.cls-4{fill:#e02131;}.cls-5{fill:#28446d;}.cls-6{fill:#2d4870;}.cls-7{fill:#f8f6f7;}.cls-8{fill:#2d4970;}.cls-9{fill:#fcfcfd;}.cls-10{fill:#496184;}.cls-11{fill:#5b7190;}.cls-12{fill:#5a708f;}.cls-13{fill:#23406a;}.cls-14{fill:#e3e7ec;}.cls-15{fill:#f1f3f5;}.cls-16{fill:#4d6486;}.cls-17{fill:#365176;}.cls-18{fill:#a5b1c2;}.cls-19{fill:#2c476f;}</style></defs><title>QCERRIS</title><path class="cls-1" d="M1288.28,385.13V510.31H82.14V183.19H1288.28V272c-8.52-11.09-14.88-25.63-26-32.59-29.47-18.47-61.39-17.31-91.13.38-29.22,17.38-31.75,56-5.13,77.27,11,8.77,24.86,14.08,37.8,20.14,10.81,5.07,22.38,8.51,33.23,13.5,9.48,4.36,13.19,12.69,11.45,22.88-1.71,10-8.77,15.36-18.22,16.53-31.67,3.89-43.9-2.23-50.52-29.11h-37.47c.7,23.74,11.67,40.06,31.49,50.79C1215.08,434.07,1261.05,423.34,1288.28,385.13ZM278.42,508.05,314,476.62l-44.71-35.17C290,424.2,303.6,402.7,309.65,377.12c8.73-36.88,9-74.05-1.8-110.58-15.22-51.33-56.34-81.44-109.07-81.06-51.89.37-92.33,31-107.17,82-9.7,33.36-10.22,67.41-3.2,101.2,13.31,64.15,59.71,98.52,124.91,94.23a22.6,22.6,0,0,1,13.92,4.41C244.43,480.43,261.12,494.19,278.42,508.05ZM702.67,229.9V419.31H742V350.65c6.64,0,11.95.64,17-.13,10.37-1.58,15.74,2.76,20,12.13,7.77,17.11,16.77,33.68,25.73,50.23,1.61,3,5.32,6.57,8.26,6.75,12.18.76,24.44.32,38.39.32l-41.62-78.86c29.79-19.66,39-40.55,31.5-70.21C835,246.28,815,231.8,781.41,230.16,755.47,228.89,729.42,229.9,702.67,229.9Zm180.4.72V419.3h39.32V350.65c6.69,0,12,.65,17.07-.14,10.4-1.6,15.72,2.84,20,12.19,7.76,17.12,16.74,33.7,25.68,50.25,1.6,3,5.36,6.5,8.32,6.68,12.19.75,24.45.32,38.34.32l-41.71-78.89c1.63-1.12,2.59-1.84,3.6-2.47,25.21-15.81,34.68-37.41,28.61-65.32C1017,249.11,998,232.62,969,231,940.72,229.37,912.26,230.62,883.07,230.62ZM581.7,336.87h74.11V306.34H582.08v-45h86.55v-31.2H542.58V419.18H668.81V387.75H581.7ZM468,293.33h38.73c-.77-4.84-1.14-9.19-2.18-13.37-7.78-31.12-30.38-49.26-65.23-52.57s-64.2,12.56-78,42.38c-12.3,26.61-12.17,54.84-8,82.69,7.6,51,41.87,75.67,92.95,69,35.05-4.61,60.33-32,59.23-64.63H468.44a36.11,36.11,0,0,0-1.23,3.46c-5.42,22.43-14,29.71-35.34,30-21,.28-34.25-8.31-36.94-29.79a294.15,294.15,0,0,1-.63-68.1c2.55-23.25,16.63-33.12,38.49-32.77C454.43,259.91,463,268,468,293.33Zm597.45,126H1104V230.4h-38.5Z"/><path class="cls-2" d="M1288.28,385.13c-27.23,38.22-73.19,48.94-114.46,26.61C1154,401,1143,384.68,1142.33,360.95h37.47c6.63,26.88,18.85,33,50.52,29.11,9.45-1.16,16.51-6.53,18.22-16.53,1.74-10.18-2-18.52-11.45-22.88-10.85-5-22.42-8.43-33.23-13.5C1190.9,331.09,1177,325.78,1166,317c-26.62-21.29-24.09-59.89,5.13-77.27,29.73-17.69,61.65-18.85,91.13-.38,11.11,7,17.46,21.5,26,32.59V286.4h-37.71c-7.18-24.63-22.32-33-46-26.37-9.11,2.57-17.32,8.31-16.45,18,.61,6.73,5.69,15.21,11.37,18.84,9.54,6.09,21,9.45,31.93,13.06,24.95,8.23,46.62,20.18,56.84,46.33Z"/><path class="cls-3" d="M1288.28,356.23c-10.22-26.16-31.89-38.1-56.84-46.33-10.94-3.61-22.39-7-31.93-13.06-5.68-3.63-10.76-12.11-11.37-18.84-.87-9.65,7.34-15.4,16.45-18,23.66-6.67,38.8,1.74,46,26.37h37.71Z"/><path class="cls-4" d="M278.42,508.05c-17.29-13.86-34-27.63-51.19-40.71a22.6,22.6,0,0,0-13.92-4.41c-65.2,4.3-111.59-30.08-124.91-94.23-7-33.8-6.5-67.85,3.2-101.2,14.84-51,55.28-81.66,107.17-82,52.73-.38,93.85,29.74,109.07,81.06,10.83,36.53,10.53,73.7,1.8,110.58C303.6,402.7,290,424.2,269.32,441.44L314,476.62ZM212.79,367.87l48.93,9.89c20.15-37.53,9.34-103-22-132.89-23.93-22.9-55.5-22.92-79.52.08-16.55,15.85-25.14,36-29.31,58-5,26.36-3.15,52.19,7.54,77.16,10.78-2.66,20.39-5.46,30.18-7.32,10.78-2,21.72-3.22,32.6-4.77Z"/><path class="cls-5" d="M702.67,229.9c26.76,0,52.8-1,78.74.25,33.63,1.64,53.6,16.12,59.83,40.72,7.52,29.66-1.71,50.55-31.5,70.21l41.62,78.86c-13.94,0-26.2.44-38.39-.32-2.94-.18-6.65-3.78-8.26-6.75-9-16.55-18-33.11-25.73-50.23-4.26-9.37-9.63-13.71-20-12.13-5.09.78-10.39.13-17,.13v68.66h-39.3Zm39.41,87.7c13.65,0,26.81,1,39.73-.28,14.26-1.45,22.47-13.07,22.06-28.06-.41-15.23-9-25.92-23.36-26.93-12.59-.89-25.29-.19-38.42-.19Z"/><path class="cls-5" d="M883.07,230.62c29.19,0,57.65-1.26,85.95.35,29,1.64,48,18.13,53.24,42.29,6.07,27.91-3.39,49.51-28.61,65.32-1,.64-2,1.35-3.6,2.47L1031.76,420c-13.89,0-26.15.44-38.34-.32-3-.18-6.72-3.72-8.32-6.68-8.94-16.55-17.92-33.13-25.68-50.25-4.24-9.35-9.55-13.79-20-12.19-5.08.78-10.39.14-17.07.14V419.3H883.07Zm39.47,86.91c13.84,0,27.07,1.11,40-.3,14.2-1.54,22.44-13.68,21.69-28.56-.77-15.36-9.5-25.52-24.14-26.43-12.27-.77-24.62-.16-38.14-.16,0,15.45,0,30.17,0,44.88C922,310.46,922.35,314,922.54,317.53Z"/><path class="cls-5" d="M581.7,336.87v50.88h87.11v31.43H542.58V230.12H668.63v31.2H582.08v45h73.73v30.53Z"/><path class="cls-2" d="M468,293.33c-5-25.37-13.6-33.41-35.24-33.76-21.86-.35-35.94,9.53-38.49,32.77a294.15,294.15,0,0,0,.63,68.1c2.69,21.48,16,30.07,36.94,29.79,21.36-.29,29.91-7.56,35.34-30a36.11,36.11,0,0,1,1.23-3.46h37.08c1.1,32.65-24.18,60-59.23,64.63-51.08,6.72-85.34-17.92-92.95-69-4.15-27.85-4.28-56.08,8-82.69,13.78-29.82,43.06-45.69,78-42.38s57.45,21.45,65.23,52.57c1,4.18,1.41,8.53,2.18,13.37Z"/><path class="cls-6" d="M1065.48,419.28V230.4H1104V419.28Z"/><path class="cls-7" d="M201.25,368c-10.87,1.55-21.81,2.72-32.59,4.77-9.79,1.86-19.39,4.66-30.18,7.32-10.69-25-12.53-50.8-7.54-77.16,4.17-22,12.75-42.12,29.31-58,24-23,55.58-23,79.52-.08,31.29,29.94,42.1,95.36,22,132.89l-48.93-9.89c-1.33-19.81-1.33-19.81,15.78-21.77l-2.36-9.6c10.47-3.39,21-6.67,31.34-10.4.75-.27.34-3.74.47-5.73q-3.33-10.75-6.67-21.49c-3.23-10.48-3.23-10.48-12.27-2.57q-5.36-6.09-10.72-12.19c-11.5-13.13-33.37-17.39-47.14-7-10.55,7.93-24.29,10.65-32.58,22.69-4.68,6.8-6.2,10.51.58,15.52l-11.07,7-.14,3.17h18.06l.09,5.91.32,3.08-11.16,3.85,1.39,3.74,10.18-2.77a1.91,1.91,0,0,0,.72,1.11l-2.53,4.18a9.1,9.1,0,0,0,1.72.81,39.75,39.75,0,0,0,2.12-3.44l33.75,2C196.61,351.56,204.93,357.65,201.25,368ZM167,352.55l-1-1.83a9.38,9.38,0,0,0-1.42,1c-.08.08.26.87.47.9A9.68,9.68,0,0,0,167,352.55Z"/><path class="cls-8" d="M149.24,315.29c-6.78-5-5.26-8.72-.58-15.52,8.29-12,22-14.76,32.58-22.69,13.76-10.35,35.63-6.09,47.14,7q5.35,6.1,10.72,12.19c9-7.91,9-7.91,12.27,2.57q3.32,10.75,6.67,21.49c-4.25-8.53-12.89-5.74-19.7-7.66l-3.57-.67,3.26,3.32-11.79,21.13,2.36,9.6c-17.11,2-17.11,2-15.78,21.77l-11.54.13c3.68-10.35-4.64-16.44-8.56-24.09l-11.43-6.69c4.61-9.68,2-15.75-7.94-19.48l-4.56-.45C163.75,302,155.86,314.84,149.24,315.29Zm37.61-11.36-1.95,14.74,5-1.25,9.15,13.5,4.3-16.5Zm42.44,9.41-5-1.91-3.6,11.5,4.63,1.52Zm-33.56-11.57-.86-.32-.12,1.27a2.3,2.3,0,0,0,.88-.21C195.78,302.4,195.71,302,195.74,301.77Z"/><path class="cls-9" d="M742.08,317.6V262.15c13.14,0,25.84-.7,38.42.19,14.32,1,22.95,11.7,23.36,26.93.41,15-7.8,26.61-22.06,28.06C768.89,318.64,755.73,317.6,742.08,317.6Z"/><path class="cls-9" d="M922.54,317.53c-.19-3.58-.53-7.07-.54-10.57-.06-14.72,0-29.43,0-44.88,13.52,0,25.88-.61,38.14.16,14.64.92,23.37,11.07,24.14,26.43.75,14.88-7.5,27-21.69,28.56C949.61,318.64,936.38,317.53,922.54,317.53Z"/><path class="cls-10" d="M173.32,317.73c10,3.74,12.55,9.81,7.94,19.48l11.43,6.69-33.75-2a1.57,1.57,0,0,0-1.31-1.55,2,2,0,0,1-.73-1.09s.13-.66.13-.66l6.71-4c7.09,1.32,5.6-3.19,4.87-7.17l4.8-.08,1,.64-1-.59.09-6.68Z"/><path class="cls-11" d="M238.32,312.71c6.81,1.92,15.46-.87,19.7,7.66-.13,2,.28,5.46-.47,5.73-10.35,3.72-20.87,7-31.34,10.4L238,315.36Q238.17,314,238.32,312.71Z"/><path class="cls-12" d="M149.24,315.29c6.62-.45,14.51-13.27,19.52,2l-2.54,4.23.15,3.52c-1.47,0-4.1.46-4.24,0-2.58-7.48-4.2-2.11-6,.35H138l.14-3.17Z"/><path class="cls-13" d="M156.09,325.42c1.84-2.46,3.47-7.83,6-.35.15.43,2.77,0,4.24,0l2.22,2.35c.72,4,2.21,8.49-4.87,7.17l-7.54-3.22Z"/><path class="cls-14" d="M157,338.58s-.14.68-.13.66L146.73,342l-1.39-3.74,11.16-3.84Z"/><path class="cls-15" d="M157,338.58l-.51-4.17-.32-3.08,7.54,3.22Z"/><path class="cls-14" d="M157.63,340.34a1.57,1.57,0,0,1,1.31,1.55,39.74,39.74,0,0,1-2.12,3.44,9.1,9.1,0,0,1-1.72-.81Z"/><path class="cls-14" d="M167,352.55a9.94,9.94,0,0,1-2,.09c-.2,0-.55-.82-.47-.9a9.38,9.38,0,0,1,1.42-1Z"/><path class="cls-16" d="M186.86,303.93l16.52,10.48-4.3,16.5-9.15-13.5-5,1.25Z"/><path class="cls-17" d="M229.29,313.34l-4,11.11-4.63-1.52,3.6-11.5Z"/><path class="cls-18" d="M166.22,321.51l2.54-4.23,4.56.45.12,2.94Z"/><path class="cls-17" d="M238.32,312.71q-.15,1.33-.31,2.65L234.75,312Z"/><path class="cls-16" d="M195.74,301.77c0,.26,0,.64-.1.74a2.3,2.3,0,0,1-.88.21l.12-1.27Z"/><path class="cls-19" d="M166.22,321.51l7.22-.84-.09,6.68.05,0-4.8.08L166.38,325Q166.3,323.28,166.22,321.51Z"/><path class="cls-19" d="M173.35,327.36l1,.59-1-.64Z"/></svg>